<svg xmlns="http://www.w3.org/2000/svg" xml:space="preserve" viewBox="0 0 512 512"><circle cx="202.105" cy="191.326" r="10.779"/><path d="M212.884 148.21h-21.558c-5.953 0-10.779 4.826-10.779 10.779s4.826 10.779 10.779 10.779h21.558c5.953 0 10.779-4.826 10.779-10.779s-4.826-10.779-10.779-10.779z"/><circle cx="309.895" cy="191.326" r="10.779"/><path d="M320.674 148.21h-21.558c-5.953 0-10.779 4.826-10.779 10.779s4.826 10.779 10.779 10.779h21.558c5.953 0 10.779-4.826 10.779-10.779s-4.826-10.779-10.779-10.779z"/><path d="M256 0C168.333 0 97.011 71.322 97.011 158.989V353.01C97.011 440.678 168.333 512 256 512s158.989-71.322 158.989-158.99V158.989C414.989 71.322 343.667 0 256 0zm142.821 353.01c0 78.752-64.069 142.821-142.821 142.821-76.958 0-139.885-61.188-142.711-137.468 25.94 52.649 80.161 88.963 142.711 88.963a8.084 8.084 0 0 0 0-16.168c-78.752 0-142.821-64.069-142.821-142.821V158.989c0-78.752 64.069-142.821 142.821-142.821s142.821 64.069 142.821 142.821V353.01z"/><path d="M255.323 43.118c-63.94.366-115.197 53.206-115.197 117.147v32.578a8.08 8.08 0 0 0 8.081 8.081h.008a8.081 8.081 0 0 0 8.081-8.081V158.99a99.54 99.54 0 0 1 2.989-24.253H256a8.085 8.085 0 0 0 7.669-5.527l5.551-16.656 12.389 18.584a8.086 8.086 0 0 0 6.726 3.599h64.379a99.528 99.528 0 0 1 2.989 24.253v41.918c0 55.219-45.179 101.278-100.397 100.901-45.044-.307-83.084-30.639-95.076-71.94-.993-3.418-4.17-5.736-7.73-5.736-5.371 0-9.276 5.152-7.776 10.31 14.032 48.206 58.601 83.536 111.274 83.536 42.272 0 79.323-22.757 99.563-56.66-2.768 52.401-46.181 94.205-99.218 94.385-4.412.015-8.266 3.38-8.424 7.789a8.085 8.085 0 0 0 8.079 8.38c63.893 0 115.874-51.98 115.874-115.874v-97.01c.002-64.118-52.346-116.24-116.549-115.871zm37.341 75.45-19.159-28.737a8.087 8.087 0 0 0-14.397 1.928l-8.936 26.808h-85.309c15.537-34.894 50.539-59.284 91.135-59.284 40.596 0 75.598 24.391 91.135 59.284h-54.469z"/><path d="M283.597 215.688c-8.264-7.725-19.056-11.558-30.388-10.793-19.038 1.286-35.85 17.787-37.478 36.783-1.426 16.637 7.209 32.029 21.761 39.483 1.687 8.681 9.34 15.26 18.509 15.26s16.823-6.578 18.51-15.262c13.273-6.863 21.911-20.768 21.911-35.938-.001-11.152-4.675-21.916-12.825-29.533zm-24.902 61.87a2.699 2.699 0 0 1-2.695 2.695 2.699 2.699 0 0 1-2.695-2.695v-24.253h5.39v24.253zm16.168-17.128v-11.856c0-6.308-5.131-11.439-11.439-11.439h-14.849c-6.308.001-11.439 5.132-11.439 11.44v11.905c-3.851-4.76-5.853-10.928-5.297-17.423.942-10.992 11.436-21.287 22.458-22.032 6.818-.457 13.3 1.839 18.257 6.473 4.963 4.639 7.696 10.933 7.696 17.722.003 5.636-1.985 10.979-5.387 15.21z"/></svg>