<svg xmlns="http://www.w3.org/2000/svg" xml:space="preserve" viewBox="0 0 512.001 512.001"><path d="M469.609 176.063c-4.802-1.769-10.115.692-11.881 5.486-1.767 4.795.691 10.114 5.485 11.88 18.112 6.668 30.281 24.123 30.281 43.432 0 25.511-20.754 46.265-46.265 46.265-5.045 0-9.934-.809-14.616-2.377a182.509 182.509 0 0 0 5.363-43.888c0-5.103 4.15-9.253 9.253-9.253s9.253 4.15 9.253 9.253a9.253 9.253 0 0 0 9.253 9.253 9.253 9.253 0 0 0 9.253-9.253c0-15.307-12.453-27.759-27.759-27.759s-27.759 12.452-27.759 27.759c0 14.675-1.956 29.248-5.811 43.314a9.285 9.285 0 0 0-.296 1.717 9.182 9.182 0 0 0-.643 1.574c-20.431 68.808-84.876 116.864-156.719 116.864S119.71 352.274 99.281 283.466a9.182 9.182 0 0 0-.643-1.574 9.285 9.285 0 0 0-.296-1.717 163.813 163.813 0 0 1-5.812-43.314c0-15.307-12.453-27.759-27.759-27.759-15.306 0-27.759 12.452-27.759 27.759a9.253 9.253 0 0 0 9.253 9.253 9.253 9.253 0 0 0 9.253-9.253c0-5.103 4.15-9.253 9.253-9.253s9.253 4.15 9.253 9.253a182.47 182.47 0 0 0 5.363 43.888 45.81 45.81 0 0 1-14.616 2.377c-25.511 0-46.265-20.754-46.265-46.265s20.754-46.265 46.265-46.265c7.335 0 14.363 1.678 20.888 4.988.697.368 1.42.758 2.164 1.157 7.47 4.031 17.705 9.549 27.28 6.101 3.512-1.263 8.313-4.284 11.241-11.497 15.631-38.513 38.456-62.454 66.004-69.234 25.19-6.203 47.81 3.185 59.523 13.105 20.721 17.546 50.354 39.798 77.492 55.379h-30.182a9.253 9.253 0 0 0-9.253 9.253 9.253 9.253 0 0 0 9.253 9.253h37.012a9.253 9.253 0 0 0 9.253-9.253c0-.245-.019-.486-.037-.727 3.709 1.795 7.325 3.414 10.798 4.798 23.843 9.505 50.517 6.103 71.354-9.1 12.649-9.23 21.941-21.983 26.87-36.884a9.251 9.251 0 0 0-1.473-8.578c-2.386-3.076-59.148-75.775-120.901-114.449-29.95-18.754-64.592-29.764-97.544-30.999-32.003-1.197-59.401 7.125-75.118 22.843-12.193 12.193-18.351 24.597-18.301 36.866a34.083 34.083 0 0 0 1.664 10.456c-34.208 12.975-55.878 41.46-61.482 81.331a9.252 9.252 0 0 0 7.875 10.451c5.066.716 9.74-2.814 10.451-7.875 3.599-25.6 16.758-58.449 59.017-69.572 3.285-.865 5.976-3.324 6.779-6.625.797-3.274-.109-6.587-2.583-8.863-1.431-1.595-10.328-13.09 9.668-33.084 24.145-24.148 91.589-25.67 149.754 10.758 50.916 31.887 100.098 90.325 112.897 106.1-3.965 9.253-10.286 17.198-18.479 23.176-15.664 11.429-35.699 13.993-53.592 6.86-30.299-12.081-72.392-42.907-99.231-65.635-15.038-12.736-43.937-24.82-75.904-16.953-23.394 5.757-56.044 24.351-78.728 80.243-.226.555-.419.883-.54 1.057-2.521.171-9.146-3.422-12.051-4.989a273.66 273.66 0 0 0-2.395-1.281c-.036-.02-.074-.038-.11-.057-9.165-4.662-19.033-7.026-29.331-7.026C29.057 172.093 0 201.149 0 236.864s29.057 64.771 64.771 64.771a64.954 64.954 0 0 0 19.972-3.162c11.881 32.901 33.438 62.28 61.468 83.521a184.595 184.595 0 0 0 17.14 11.531c-28.73 21.049-49.966 51.684-59.237 86.084-1.33 4.935 1.591 10.013 6.526 11.342a9.272 9.272 0 0 0 2.413.321c4.08 0 7.816-2.72 8.927-6.847a136.38 136.38 0 0 1 9.126-24.291 139.106 139.106 0 0 1 14.416 12.852 119.748 119.748 0 0 0-7.517 24.169 9.253 9.253 0 1 0 18.154 3.592c3.91-19.759 13.545-37.775 27.868-52.096 3.614-3.614 3.614-9.473-.001-13.085-3.612-3.615-9.471-3.614-13.085 0a120.892 120.892 0 0 0-16.373 20.36 157.62 157.62 0 0 0-14.188-11.971c10.811-16.246 25.004-30.246 41.624-40.758 23.066 10.298 48.1 15.641 73.994 15.641 25.895 0 50.929-5.343 73.995-15.641 14.995 9.484 28.017 21.804 38.36 36.056a157.72 157.72 0 0 0-14.686 11.154 121.11 121.11 0 0 0-12.611-14.843c-3.614-3.614-9.473-3.614-13.085 0a9.25 9.25 0 0 0-.001 13.085c14.321 14.321 23.958 32.336 27.868 52.096.872 4.407 4.739 7.459 9.068 7.459a9.252 9.252 0 0 0 9.086-11.051 119.59 119.59 0 0 0-10.567-30.69c4.67-4.172 9.61-8.03 14.791-11.533 5.04 9.32 9.031 19.214 11.802 29.495 1.112 4.128 4.849 6.847 8.927 6.847a9.252 9.252 0 0 0 8.939-11.663c-9.269-34.4-30.507-65.035-59.237-86.084a184.451 184.451 0 0 0 17.14-11.53c28.032-21.241 49.587-50.62 61.468-83.521a64.95 64.95 0 0 0 19.972 3.162c35.714 0 64.771-29.056 64.771-64.771.002-27.033-17.035-51.466-42.389-60.802z"/><circle cx="194.313" cy="236.865" r="18.506"/><circle cx="317.687" cy="236.865" r="18.506"/><path d="M212.819 190.597h-37.012a9.253 9.253 0 0 0-9.253 9.253 9.253 9.253 0 0 0 9.253 9.253h37.012a9.253 9.253 0 0 0 9.253-9.253 9.251 9.251 0 0 0-9.253-9.253zM275.628 269.182c-3.611-3.614-9.47-3.614-13.085 0a9.19 9.19 0 0 1-6.542 2.711 9.184 9.184 0 0 1-6.542-2.711c-3.612-3.611-9.471-3.614-13.085 0a9.252 9.252 0 0 0-.001 13.086c5.243 5.242 12.214 8.13 19.629 8.13s14.385-2.888 19.629-8.13c3.611-3.614 3.611-9.473-.003-13.086z"/><path d="M391.711 239.946a9.253 9.253 0 0 0-9.253 9.253c0 15.307-12.453 27.759-27.759 27.759h-43.181c-5.103 0-9.253-4.15-9.253-9.258 0-15.301-12.453-27.748-27.759-27.748h-37.012c-15.306 0-27.759 12.447-27.759 27.753 0 5.103-4.15 9.253-9.253 9.253h-43.181c-15.306 0-27.759-12.452-27.759-27.759a9.253 9.253 0 0 0-9.253-9.253 9.253 9.253 0 0 0-9.253 9.253c0 25.511 20.754 46.265 46.265 46.265h43.181c15.306 0 27.759-12.452 27.759-27.764 0-5.097 4.15-9.242 9.253-9.242h37.012c5.103 0 9.253 4.145 9.253 9.247 0 15.307 12.453 27.759 27.759 27.759h43.181c25.511 0 46.265-20.754 46.265-46.265a9.253 9.253 0 0 0-9.253-9.253z"/></svg>