<svg xmlns="http://www.w3.org/2000/svg" fill="none" viewBox="0 0 24 24"><path stroke="#000" stroke-linecap="round" stroke-linejoin="round" stroke-width="2" d="M8 4h-.8c-1.12 0-1.68 0-2.108.218a2 2 0 0 0-.874.874C4 5.52 4 6.08 4 7.2V8m0 3v2m0 3v.8c0 1.12 0 1.68.218 2.108a2 2 0 0 0 .874.874C5.52 20 6.08 20 7.2 20H8m3 0h2m3 0h.8c1.12 0 1.68 0 2.108-.218a2 2 0 0 0 .874-.874C20 18.48 20 17.92 20 16.8V16m0-3v-2m0-3v-.8c0-1.12 0-1.68-.218-2.108a2 2 0 0 0-.874-.874C18.48 4 17.92 4 16.8 4H16m-3 0h-2"/></svg>