<svg xmlns="http://www.w3.org/2000/svg" xml:space="preserve" viewBox="0 0 512 512"><path d="M332.8 281.6a8.533 8.533 0 0 0 0-17.066c-14.154 0-25.6-11.446-25.6-25.6 0-4.713-3.82-8.533-8.533-8.533s-8.533 3.82-8.533 8.533c-.001 23.579 19.086 42.666 42.666 42.666zM290.133 324.267a8.533 8.533 0 0 0-8.533-8.533c-14.154 0-25.6-11.446-25.6-25.6 0-4.713-3.82-8.533-8.533-8.533s-8.533 3.82-8.533 8.533c0 23.58 19.087 42.667 42.667 42.667a8.534 8.534 0 0 0 8.532-8.534zM273.067 128a8.533 8.533 0 0 0 0-17.066c-14.154 0-25.6-11.446-25.6-25.6 0-4.713-3.82-8.533-8.533-8.533s-8.533 3.82-8.533 8.533C230.4 108.913 249.487 128 273.067 128zM273.067 170.667c0 14.154-11.446 25.6-25.6 25.6-4.713 0-8.533 3.82-8.533 8.533s3.82 8.533 8.533 8.533c23.58 0 42.667-19.087 42.667-42.667a8.534 8.534 0 0 0-17.067.001zM204.8 230.4a8.533 8.533 0 0 0-8.533 8.533c0 14.154-11.446 25.6-25.6 25.6-4.713 0-8.533 3.82-8.533 8.533s3.82 8.533 8.533 8.533c23.58 0 42.667-19.087 42.667-42.667a8.534 8.534 0 0 0-8.534-8.532z"/><path d="M503.467 494.933H332.8c-24.818 0-39.985-20.643-47.231-57.129-3.66-18.431-4.728-37.912-4.268-54.994 47.011-4.588 78.312-22.359 96.051-49.624 6.837-10.509 11.147-21.73 13.428-33.053 1.489-7.39 1.921-13.697 1.769-18.367-.055-36.006-10.449-62.808-27.878-81.688-7.056-7.644-14.175-12.994-20.405-16.482 4.155-10.497 5.601-22.428 5.601-38.53 0-28.964-13.253-55.695-35.35-73.327a59.74 59.74 0 0 0 1.216-12.006C315.733 26.741 288.992 0 256 0s-59.733 26.741-59.733 59.733c0 4.062.411 8.08 1.216 12.006-22.096 17.632-35.35 44.364-35.35 73.327 0 16.102 1.446 28.033 5.601 38.53-6.23 3.488-13.348 8.838-20.405 16.482-17.462 18.917-27.863 45.786-27.863 81.521-.166 4.837.266 11.144 1.755 18.534 2.281 11.323 6.591 22.545 13.428 33.053 17.738 27.265 49.039 45.036 96.051 49.624.459 17.082-.608 36.563-4.268 54.994-7.246 36.486-22.413 57.129-47.231 57.129H8.533a8.534 8.534 0 0 0 0 17.067H503.467a8.534 8.534 0 0 0 0-17.067zM148.954 323.88c-5.587-8.588-9.126-17.803-11.003-27.117-1.21-6.007-1.553-11.016-1.442-14.441.023-32.187 8.823-54.918 23.361-70.667 5-5.416 10.333-9.594 15.629-12.684 3.066-1.788 5.332-2.786 6.399-3.142 5.129-1.71 7.395-7.696 4.685-12.374-5.477-9.452-7.383-20.592-7.383-38.388 0-25.366 12.415-48.622 32.864-62.93a8.533 8.533 0 0 0 3.245-9.561 42.563 42.563 0 0 1-1.976-12.842c0-23.567 19.1-42.667 42.667-42.667s42.667 19.1 42.667 42.667c0 4.397-.672 8.713-1.976 12.842a8.533 8.533 0 0 0 3.245 9.561c20.45 14.308 32.864 37.564 32.864 62.93 0 17.796-1.906 28.936-7.383 38.388-2.711 4.677-.444 10.664 4.685 12.374 1.067.356 3.333 1.354 6.399 3.142 5.296 3.089 10.63 7.267 15.629 12.684 14.538 15.749 23.337 38.48 23.337 69.945.135 4.147-.208 9.156-1.418 15.163-1.876 9.314-5.415 18.529-11.003 27.117-17.418 26.773-51.228 43.054-107.046 43.054s-89.628-16.282-107.046-43.054zm70.368 171.053c11.512-12.318 19.281-30.804 23.849-53.804 3.829-19.282 5.012-39.302 4.63-57.129h16.398c-.382 17.827.801 37.847 4.63 57.129 4.568 23 12.337 41.486 23.849 53.804h-73.356z"/></svg>