<svg xmlns="http://www.w3.org/2000/svg" xml:space="preserve" viewBox="0 0 512 512"><path d="M414.513 202.511a1.913 1.913 0 0 1-1.016-1.691v-41.878C413.497 71.544 343.044.243 256.447 0h-.451C214.072 0 174.61 16.334 144.84 46.023c-29.88 29.797-46.336 69.386-46.336 111.474v42.014c0 .427-.067.846-.218 1.309-.316.971-1.042 1.812-2.047 2.369-27.241 15.136-43.787 43.89-43.182 75.041.421 21.671 9.169 42.12 24.634 57.583s35.917 24.209 57.586 24.627c30.703.59 59.236-15.741 74.4-42.086 1.885.822 3.795 1.596 5.729 2.319v26.888l-52.176 28.987c-27.907 15.504-45.243 44.968-45.243 76.893v50.44a8.118 8.118 0 0 0 8.118 8.118h259.789a8.118 8.118 0 0 0 8.118-8.118v-50.44c0-31.925-17.337-61.389-45.243-76.893l-52.177-28.987v-26.888a115.258 115.258 0 0 0 5.73-2.319c14.896 25.883 42.678 42.102 72.783 42.102.538 0 1.078-.005 1.617-.016 21.671-.418 42.121-9.164 57.586-24.627s24.214-35.913 24.634-57.583c.619-31.75-16.405-60.764-44.429-75.719zM150.591 495.763h-16.367v-37.886h22.093c-2.671 7.973-5.144 20.027-5.726 37.886zm227.185 0h-16.367c-.582-17.859-3.056-29.914-5.726-37.886h22.093v37.886zm-36.892-105.02a71.617 71.617 0 0 1 17.675 13.856c-44.605 17.368-86.874 19.498-119.548 16.715-4.745-.404-8.819 3.32-8.819 8.083a8.116 8.116 0 0 0 7.424 8.091 295.522 295.522 0 0 0 25.249 1.087c31.135 0 67.635-4.957 105.603-20.438a71.717 71.717 0 0 1 8.328 23.504h-34.535c-3.22 0-6.26 1.844-7.451 4.837-1.284 3.228-.66 6.647 1.908 8.904.919 1.261 7.399 11.18 8.439 40.381H166.843c1.039-29.201 7.52-39.121 8.439-40.381 2.57-2.258 3.192-5.676 1.908-8.904-1.19-2.993-4.229-4.837-7.451-4.837h-34.535a71.785 71.785 0 0 1 10.531-27.147c5.414 2.522 23.908 10.579 51.234 16.71 5.079 1.14 9.913-2.715 9.913-7.919v-.01c0-3.785-2.617-7.08-6.31-7.912-20.975-4.722-36.51-10.665-44.067-13.869a71.57 71.57 0 0 1 14.609-10.753l44.765-24.869a8.112 8.112 0 0 0 8.254 5.386c4.285-.313 7.51-4.07 7.51-8.367V325.41a116.381 116.381 0 0 0 24.355 2.572c8.351 0 16.498-.892 24.355-2.572v37.481c0 4.297 3.225 8.055 7.51 8.367a8.114 8.114 0 0 0 8.254-5.386l44.767 24.871zM256 311.746c-55.211 0-100.127-44.916-100.127-100.127v-67.653h61.098c23.224 0 45.019-9.863 60.269-26.851 12.98 16.895 33.036 26.851 54.532 26.851h24.355v67.653c0 55.211-44.917 100.127-100.127 100.127zm186.71-33.83c-.697 35.862-30.439 65.6-66.3 66.292-24.547.47-47.359-12.462-59.672-33.371 33.342-20.488 55.626-57.297 55.626-99.218v-75.772a8.118 8.118 0 0 0-8.118-8.118h-32.474a52.451 52.451 0 0 1-43.732-23.405l-3.636-5.454a8.12 8.12 0 0 0-13.51 0 64.675 64.675 0 0 1-53.923 28.859h-69.216a8.118 8.118 0 0 0-8.118 8.118v75.772c0 41.92 22.284 78.73 55.627 99.216-12.316 20.911-35.151 33.852-59.672 33.371-35.862-.692-65.604-30.43-66.3-66.292-.488-25.128 12.86-48.323 34.833-60.532 4.6-2.555 8.009-6.652 9.619-11.591.662-2.032.998-4.146.998-6.283v-42.013c0-37.743 14.761-73.248 41.564-99.977 26.706-26.632 62.094-41.283 99.692-41.283h.405c77.669.218 140.858 64.235 140.858 142.706v41.878c0 2.372.456 4.687 1.354 6.883a18.193 18.193 0 0 0 8.256 9.133c22.604 12.064 36.336 35.468 35.839 61.081z"/><circle cx="201.877" cy="200.795" r="10.825"/><circle cx="310.123" cy="200.795" r="10.825"/><path d="M212.702 157.497h-21.649c-5.978 0-10.825 4.846-10.825 10.825s4.846 10.825 10.825 10.825h21.649c5.978 0 10.825-4.846 10.825-10.825s-4.847-10.825-10.825-10.825zM320.947 157.497h-21.649c-5.978 0-10.825 4.846-10.825 10.825s4.846 10.825 10.825 10.825h21.649c5.978 0 10.825-4.846 10.825-10.825s-4.847-10.825-10.825-10.825zM297.57 258.715a8.12 8.12 0 0 0-11.093 2.963c-6.278 10.853-17.957 17.595-30.478 17.595s-24.199-6.743-30.478-17.595a8.12 8.12 0 0 0-14.056 8.13c9.172 15.854 26.235 25.702 44.533 25.702s35.362-9.849 44.533-25.703a8.117 8.117 0 0 0-2.961-11.092zM256.001 211.619c-5.978 0-10.825 4.846-10.825 10.825v6.87a3.952 3.952 0 0 0 3.953 3.954h13.742a3.954 3.954 0 0 0 3.954-3.954v-6.87c.001-5.978-4.846-10.825-10.824-10.825z"/></svg>